<?xml version="1.0" encoding="UTF-8" standalone="no"?>
<svg
   xmlns:dc="http://purl.org/dc/elements/1.1/"
   xmlns:cc="http://creativecommons.org/ns#"
   xmlns:rdf="http://www.w3.org/1999/02/22-rdf-syntax-ns#"
   xmlns:svg="http://www.w3.org/2000/svg"
   xmlns="http://www.w3.org/2000/svg"
   xmlns:xlink="http://www.w3.org/1999/xlink"
   xmlns:sodipodi="http://sodipodi.sourceforge.net/DTD/sodipodi-0.dtd"
   xmlns:inkscape="http://www.inkscape.org/namespaces/inkscape"
   width="151.66789mm"
   height="141.98332mm"
   viewBox="0 0 151.66789 141.98332"
   version="1.1"
   id="svg8"
   inkscape:version="1.0.2-2 (e86c870879, 2021-01-15)"
   sodipodi:docname="connect_with_us.svg">
  <defs
     id="defs2">
    <linearGradient
       inkscape:collect="always"
       id="linearGradient1006">
      <stop
         style="stop-color:#a39a75;stop-opacity:1;"
         offset="0"
         id="stop1002" />
      <stop
         style="stop-color:#a39a75;stop-opacity:0;"
         offset="1"
         id="stop1004" />
    </linearGradient>
    <linearGradient
       inkscape:collect="always"
       id="linearGradient966">
      <stop
         style="stop-color:#aa3f00;stop-opacity:1"
         offset="0"
         id="stop962" />
      <stop
         style="stop-color:#aa8800;stop-opacity:0;"
         offset="1"
         id="stop964" />
    </linearGradient>
    <linearGradient
       inkscape:collect="always"
       xlink:href="#linearGradient966"
       id="linearGradient968"
       x1="55.99823"
       y1="116.89352"
       x2="78.463928"
       y2="83.267838"
       gradientUnits="userSpaceOnUse" />
    <linearGradient
       inkscape:collect="always"
       xlink:href="#linearGradient1006"
       id="linearGradient1008"
       x1="68.960236"
       y1="117.01655"
       x2="79.316696"
       y2="120.22987"
       gradientUnits="userSpaceOnUse" />
  </defs>
  <sodipodi:namedview
     id="base"
     pagecolor="#ffffff"
     bordercolor="#666666"
     borderopacity="1.0"
     inkscape:pageopacity="0.0"
     inkscape:pageshadow="2"
     inkscape:zoom="0.7257496"
     inkscape:cx="341.4429"
     inkscape:cy="326.24323"
     inkscape:document-units="mm"
     inkscape:current-layer="layer1"
     inkscape:document-rotation="0"
     showgrid="false"
     inkscape:snap-global="false"
     fit-margin-top="0"
     fit-margin-left="0"
     fit-margin-right="0"
     fit-margin-bottom="0" />
  <metadata
     id="metadata5">
    <rdf:RDF>
      <cc:Work
         rdf:about="">
        <dc:format>image/svg+xml</dc:format>
        <dc:type
           rdf:resource="http://purl.org/dc/dcmitype/StillImage" />
        <dc:title></dc:title>
      </cc:Work>
    </rdf:RDF>
  </metadata>
  <g
     inkscape:label="Layer 1"
     inkscape:groupmode="layer"
     id="layer1"
     transform="translate(-14.857529,-22.199116)">
    <path
       style="fill:#0082b0;fill-opacity:1;stroke:none;stroke-width:0.264583px;stroke-linecap:butt;stroke-linejoin:miter;stroke-opacity:1"
       d="m 61.611583,137.80579 c 0,0 -17.316864,8.56729 -6.926745,12.21295 10.390121,3.64565 40.649063,-5.46848 37.73254,-13.67121 C 91.09669,127.13849 76.301981,126.96719 80.647641,125.6188 90.723049,122.49256 96.553179,114.94479 78.92845,115.74958 8.3927221,108.0784 2.1847068,140.18897 61.611583,137.80579 Z"
       id="path1010"
       sodipodi:nodetypes="cscscc" />
    <path
       style="fill:#0082b0;fill-opacity:1;stroke:none;stroke-width:0.264583px;stroke-linecap:butt;stroke-linejoin:miter;stroke-opacity:1"
       d="m 55.537401,150.12454 c 0,0 7.028952,1.82232 14.057905,-0.95455 7.028952,-2.77687 12.322361,-4.33886 12.322361,-4.33886 l 39.657173,19.35131 44.95058,-24.21083 -5.03307,-2.16943 c 0,0 -49.28944,-10.76038 -49.28944,-17.87611 0,-7.11573 -56.665509,30.19847 -56.665509,30.19847 z"
       id="path918"
       sodipodi:nodetypes="csccccsc" />
    <path
       style="fill:#f3ebc8;fill-opacity:1;stroke:none;stroke-width:0.264583px;stroke-linecap:butt;stroke-linejoin:miter;stroke-opacity:1"
       d="m 14.954073,83.923577 c 0,0 0.780927,43.308553 28.488676,48.993973 33.236403,6.81985 41.414938,-20.11119 43.782427,-45.907846 1.911005,-20.822703 -35.782378,-26.917292 -59.886814,-17.655127 -14.40099,5.533602 -12.384289,14.569 -12.384289,14.569 z"
       id="path835"
       sodipodi:nodetypes="csssc" />
    <ellipse
       style="fill:#d6c680;fill-opacity:1;stroke:#ffffff;stroke-width:0.905564"
       id="path833"
       cx="51.066807"
       cy="84.008492"
       rx="31.857016"
       ry="15.735045" />
    <g
       id="g916">
      <path
         style="fill:#528891;fill-opacity:1;stroke:none;stroke-width:0.264583px;stroke-linecap:butt;stroke-linejoin:miter;stroke-opacity:1"
         d="m 73.074529,136.93064 41.484961,-17.14049 49.18574,18.87938 -42.47859,22.10874 z"
         id="path841" />
      <path
         style="fill:#c8edf3;fill-opacity:1;stroke:none;stroke-width:0.264583px;stroke-linecap:butt;stroke-linejoin:miter;stroke-opacity:1"
         d="m 72.536547,132.18797 41.484943,-17.14049 49.18574,18.87938 -42.47859,22.10874 z"
         id="path839" />
      <path
         style="fill:#27636d;fill-opacity:1;stroke:none;stroke-width:0.264583px;stroke-linecap:butt;stroke-linejoin:miter;stroke-opacity:1"
         d="m 72.536547,132.18797 0.537982,4.74267 48.192111,23.84763 -0.538,-4.74267 z"
         id="path843" />
      <path
         style="fill:#98cfd8;fill-opacity:1;stroke:none;stroke-width:0.264583px;stroke-linecap:butt;stroke-linejoin:miter;stroke-opacity:1"
         d="m 120.72864,156.0356 42.47859,-22.10874 c 0,0 0.12209,2.62414 0.56759,4.71308 -0.29142,0.50475 -42.50818,22.13833 -42.50818,22.13833 l -0.538,-4.74267 42.47859,-22.10874"
         id="path845"
         sodipodi:nodetypes="cccccc" />
      <path
         style="fill:#232f53;fill-opacity:1;stroke:none;stroke-width:0.264583px;stroke-linecap:butt;stroke-linejoin:miter;stroke-opacity:1"
         d="m 72.974035,136.8929 1.183682,0.53266 -0.414287,-4.55718 41.90237,-17.10422 -1.77553,-0.7102 -41.310522,17.10421 z"
         id="path847" />
      <path
         id="path849"
         style="fill:#252933;fill-opacity:1;stroke:none;stroke-width:0.999999px;stroke-linecap:butt;stroke-linejoin:miter;stroke-opacity:1"
         d="m 274.25586,499.66016 1.55078,17.73046 4.47461,2.01368 -1.56641,-17.22461 0.32813,-0.13477 -4.72852,-2.36328 z"
         transform="scale(0.26458333)" />
    </g>
    <path
       style="fill:#28414a;fill-opacity:0.350109;stroke:none;stroke-width:0.264583px;stroke-linecap:butt;stroke-linejoin:miter;stroke-opacity:1"
       d="m 85.562307,143.00881 4.252084,-2.34299 c 0,0 21.867849,-17.18188 20.826519,-18.74387 -1.04132,-1.56199 -24.731494,12.84302 -24.731494,12.84302 l -5.033076,5.90085 z"
       id="path920" />
    <g
       id="g908"
       transform="translate(-4.9088591,-3.5589225)">
      <ellipse
         style="fill:#0d3bab;fill-opacity:1;stroke:none;stroke-width:1.01;stroke-opacity:1"
         id="path856"
         cx="161.9957"
         cy="-8.8048773"
         rx="6.1819715"
         ry="31.957651"
         transform="rotate(61.017495)" />
      <path
         id="ellipse878"
         style="fill:#506eb8;fill-opacity:0.472648;stroke:none;stroke-width:3.81732;stroke-opacity:1"
         d="m 426.86914,457.99414 c -6.80381,19.0901 -105.2131,66.15192 -110.16016,69.68555 -5.27428,3.76735 -1.00553,14.06441 -46.21372,30.89194 -15.0422,5.59906 -12.80919,2.76399 -14.31613,6.28016 -1.98502,8.10218 13.05681,4.13446 -3.40569,12.39626 22.59312,-6.57006 53.41025,-20.21636 84.32812,-37.3418 58.35438,-32.32298 100.59114,-67.67695 94.33789,-78.96484 -0.78076,-1.4085 -2.31234,-2.39618 -4.57031,-2.94727 z"
         sodipodi:nodetypes="cssccccc"
         transform="scale(0.26458333)" />
      <path
         id="ellipse863"
         style="fill:#122045;fill-opacity:1;stroke:none;stroke-width:3.81732;stroke-opacity:1"
         d="m 421.81445,457.47461 a 23.364932,120.78482 61.017495 0 0 -107.35547,41.55273 23.364932,120.78482 61.017495 0 0 -21.46289,12.46094 c 6.73673,3.0332 21.45923,12.75388 29.92188,36.0332 a 23.364932,120.78482 61.017495 0 0 14.18359,-7.61523 23.364932,120.78482 61.017495 0 0 94.33789,-78.96484 23.364932,120.78482 61.017495 0 0 -9.625,-3.4668 z"
         transform="scale(0.26458333)" />
      <path
         id="ellipse858"
         style="fill:#0d3bab;fill-opacity:1;stroke:none;stroke-width:3.81732;stroke-opacity:1"
         d="m 421.81445,457.47461 a 23.364932,120.78482 61.017495 0 0 -107.35547,41.55273 23.364932,120.78482 61.017495 0 0 -19.85351,11.48438 c 8.62219,2.9944 23.57959,11.60354 30.5625,35.83398 a 23.364932,120.78482 61.017495 0 0 11.93359,-6.43945 23.364932,120.78482 61.017495 0 0 94.33789,-78.96484 23.364932,120.78482 61.017495 0 0 -9.625,-3.4668 z"
         transform="scale(0.26458333)" />
      <path
         style="fill:#b1bad2;fill-opacity:1;stroke:none;stroke-width:0.264583px;stroke-linecap:butt;stroke-linejoin:miter;stroke-opacity:1"
         d="m 68.264732,150.47666 c 0,0 2.17741,0.11769 3.295539,-0.2354 1.118129,-0.35309 15.536114,-7.00302 15.889205,-7.59151 0.353095,-0.58849 -0.52964,-2.2951 -0.52964,-2.2951 0,0 -14.417982,8.47424 -15.771505,8.53309 -1.353527,0.0588 -2.942447,0.29424 -2.942447,0.29424 0,0 -0.647338,0.41194 0.05885,1.29468 z"
         id="path871" />
      <path
         id="path873"
         style="fill:#ffffff;fill-opacity:1;stroke:none;stroke-width:0.999999px;stroke-linecap:butt;stroke-linejoin:miter;stroke-opacity:1"
         d="m 327.80524,531.89537 c 0,0 -48.26489,27.36295 -57.69391,30.53041 -0.49904,1.43612 -0.70831,3.25696 -0.23047,5.57617 0.19835,-0.0516 0.39983,-0.102 0.58398,-0.16015 4.226,-1.33452 58.71822,-26.46915 60.05274,-28.69336 1.33453,-2.22422 -2.71234,-7.25307 -2.71234,-7.25307 z"
         sodipodi:nodetypes="cccssc"
         transform="scale(0.26458333)" />
      <path
         id="path885"
         style="fill:#2c53b2;fill-opacity:1;stroke:none;stroke-width:3.81732;stroke-opacity:1"
         d="m 431.80078,465.37695 c -19.56367,11.92791 -53.83002,27.1488 -67.62305,32.66602 -17.34662,6.93865 -40.96999,25.41622 -47.12695,30.35547 3.16952,4.74389 6.00823,10.62927 8.11719,17.94726 3.98589,-2.09474 7.97005,-4.24462 11.93359,-6.43945 51.27975,-28.40432 91.21102,-59.83066 94.69922,-74.5293 z"
         sodipodi:nodetypes="cscccc"
         transform="scale(0.26458333)" />
      <path
         style="fill:#c8edf3;fill-opacity:1;stroke:none;stroke-width:0.264583px;stroke-linecap:butt;stroke-linejoin:miter;stroke-opacity:1"
         d="m 76.581203,136.82228 c 0,0 -10.799913,8.6259 -13.605084,11.43108 -2.805173,2.80517 -1.122069,4.62853 -1.122069,4.62853 0,0 -2.719588,0.89586 -2.384397,-1.40259 0.490906,-3.3662 13.18431,-11.64146 17.11155,-14.65702 z"
         id="path892"
         sodipodi:nodetypes="cscsc" />
      <path
         style="fill:#ffffff;fill-opacity:0.286652;stroke:none;stroke-width:0.264583px;stroke-linecap:butt;stroke-linejoin:miter;stroke-opacity:1"
         d="m 79.838144,135.27854 c 0,0 20.375036,-10.82673 25.825006,-12.42696 6.56193,-1.92673 7.63217,-1.19824 6.64039,-0.40479 -0.99177,0.79343 -5.48903,-1.15229 -32.465396,12.83178 z"
         id="path894"
         sodipodi:nodetypes="csscc" />
      <path
         style="fill:#5486ff;fill-opacity:1;stroke:none;stroke-width:0.264583px;stroke-linecap:butt;stroke-linejoin:miter;stroke-opacity:1"
         d="m 78.156992,135.03016 c 0,0 5.567707,0.77177 7.947512,9.65332 -0.600908,-0.60091 -1.124283,-6.59062 -7.947512,-9.65332 z"
         id="path896" />
    </g>
    <path
       id="path833-6"
       style="fill:url(#linearGradient968);fill-opacity:1;stroke:none;stroke-width:0.905563"
       d="m 51.071816,79.386368 c -2.345848,0.0086 -4.774911,0.183224 -7.260021,0.551386 -11.563569,1.713124 -17.972578,6.372013 -21.316528,9.972003 a 31.857016,15.735045 0 0 0 28.571382,8.775692 31.857016,15.735045 0 0 0 27.151832,-7.50497 C 76.261816,85.28198 65.179963,79.334472 51.071816,79.386368 Z" />
    <path
       id="path945"
       style="fill:#f2f2f2;stroke:none;stroke-width:0.359833"
       d="m 50.576477,83.946714 c -1.021278,0.0031 -2.07877,0.06653 -3.160677,0.200056 -5.034268,0.621314 -7.824592,2.310929 -9.2804,3.616569 a 13.869138,5.706764 0 0 0 0.133949,0.108756 c 1.489455,-1.288234 4.258054,-2.897896 9.146451,-3.501207 1.081907,-0.133524 2.139399,-0.196951 3.160677,-0.200055 5.977252,-0.01832 10.705291,2.024136 11.7399,4.105383 a 13.869138,5.706764 0 0 0 0.07845,-0.0519 c -0.851845,-2.13926 -5.676279,-4.296422 -11.818344,-4.277601 z" />
    <path
       id="path950"
       style="fill:#f2f2f2;stroke:none;stroke-width:0.555875"
       d="m 50.795898,82.693036 c -1.439989,0.0053 -2.931038,0.112606 -4.456512,0.338601 -7.09825,1.051595 -11.032569,3.911326 -13.085239,6.121165 a 19.555295,9.6588914 0 0 0 0.188866,0.184074 c 2.100112,-2.180379 6.0038,-4.904787 12.896373,-5.925911 1.525474,-0.225994 3.016523,-0.333346 4.456512,-0.3386 8.427843,-0.031 15.094315,3.425919 16.553099,6.9485 a 19.555295,9.6588914 0 0 0 0.110603,-0.08785 c -1.20109,-3.620769 -8.003476,-7.27184 -16.663702,-7.239984 z" />
    <path
       id="path952"
       style="fill:#f2f2f2;stroke:none;stroke-width:0.351074"
       d="m 50.159598,96.535881 c 0.909453,-0.0033 1.851155,-0.07112 2.814598,-0.21385 4.483039,-0.664156 6.967836,-2.470275 8.26424,-3.865942 a 12.350531,6.1002629 0 0 0 -0.119282,-0.116256 c -1.326367,1.377061 -3.791818,3.097715 -8.144958,3.742626 -0.963443,0.142731 -1.905145,0.210531 -2.814598,0.213849 -5.32277,0.01958 -9.533112,-2.163706 -10.454435,-4.388462 a 12.350531,6.1002629 0 0 0 -0.06985,0.05548 c 0.758572,2.286768 5.054753,4.592673 10.524289,4.572554 z" />
    <g
       id="g985"
       transform="translate(3.7041668,3.1750001)">
      <path
         style="fill:#ffd2b8;fill-opacity:1;stroke:#ffffff;stroke-width:0.264583px;stroke-linecap:butt;stroke-linejoin:miter;stroke-opacity:1"
         d="m 41.357136,26.507839 c 0,0 -17.671891,16.076515 -8.099615,26.385118 9.572273,10.308603 8.467781,17.671893 6.872402,21.844423 -1.59538,4.172529 4.172529,-4.17253 2.208987,-10.063163 -1.963544,-5.89063 -12.640312,-15.708349 -8.713226,-25.280622 3.927088,-9.572276 7.731452,-12.885756 7.731452,-12.885756 z"
         id="path976"
         sodipodi:nodetypes="cssssc" />
      <path
         style="fill:#ffd2b8;fill-opacity:1;stroke:#ffffff;stroke-width:0.264583px;stroke-linecap:butt;stroke-linejoin:miter;stroke-opacity:1"
         d="m 49.824918,19.14455 c 0,0 -17.917334,14.603858 -8.345058,24.912461 9.572273,10.308603 8.467781,17.671893 6.872402,21.844423 -1.59538,4.172529 4.172529,-4.17253 2.208987,-10.063163 C 48.597705,49.947641 37.920937,40.129922 41.848023,30.557649 45.775111,20.985373 49.824918,19.14455 49.824918,19.14455 Z"
         id="path978"
         sodipodi:nodetypes="cssssc" />
      <path
         style="fill:#ffd2b8;fill-opacity:1;stroke:#ffffff;stroke-width:0.203504px;stroke-linecap:butt;stroke-linejoin:miter;stroke-opacity:1"
         d="m 67.124786,36.361524 c 0,0 -16.778164,5.880794 -12.548303,15.839817 4.22986,9.959023 1.506259,14.996754 -0.738427,17.598056 -2.244686,2.601302 4.108935,-1.92768 4.228266,-6.702057 0.11933,-4.774377 -5.037804,-14.667001 0.304984,-20.56488 5.342789,-5.89788 8.75348,-6.170936 8.75348,-6.170936 z"
         id="path980"
         sodipodi:nodetypes="cssssc" />
    </g>
    <path
       id="path987"
       style="fill:#fff4ee;fill-opacity:1;stroke:none;stroke-width:3.81732;stroke-opacity:1"
       d="m 193.1543,326.53516 c -17.03433,2.1e-4 -30.84326,5.91832 -30.84375,13.21875 -0.002,7.30119 13.80764,13.22049 30.84375,13.2207 17.03687,2.5e-4 30.84772,-5.91919 30.8457,-13.2207 -4.9e-4,-7.30075 -13.81061,-13.219 -30.8457,-13.21875 z m 0,1.19336 c 15.49741,-2e-4 30.85217,5.54466 30.85351,12.18641 0.001,6.64251 -15.35432,11.86652 -30.85351,11.86632 -15.49842,-2.6e-4 -30.74538,-5.65352 -30.74421,-12.29571 0.001,-6.64142 15.24756,-11.75676 30.74421,-11.75702 z"
       transform="scale(0.26458333)"
       sodipodi:nodetypes="scscsscscs" />
    <path
       style="fill:url(#linearGradient1008);fill-opacity:1;stroke:none;stroke-width:0.264583px;stroke-linecap:butt;stroke-linejoin:miter;stroke-opacity:1"
       d="m 84.297352,104.0652 c 0,0 -11.474436,7.95257 -11.815262,13.86021 -0.340826,5.90763 -3.521858,12.04248 -3.521858,12.04248 0,0 13.292172,-9.88393 15.33712,-25.90269 z"
       id="path992" />
    <path
       style="fill:#f3ebc8;fill-opacity:1;stroke:none;stroke-width:0.264583px;stroke-linecap:butt;stroke-linejoin:miter;stroke-opacity:1"
       d="m 72.499109,120.82564 c 0,0 23.408192,-5.77201 24.462117,-20.35132 1.053928,-14.579321 -14.052352,-9.660997 -14.052352,-9.660997 l -1.229579,4.567015 c 0,0 10.012301,-1.756545 9.66099,5.269632 -0.351308,7.02617 -15.563694,10.80484 -15.563694,10.80484 0,0 -2.433144,2.63182 -3.00255,4.27844 -0.555561,1.60659 -0.274932,5.09239 -0.274932,5.09239 z"
       id="path837"
       sodipodi:nodetypes="csccscsc" />
  </g>
</svg>
